<?xml version='1.0' encoding='utf-8'?>
<svg xmlns="http://www.w3.org/2000/svg" width="1920" height="1080" viewBox="0 0 1920 1080" data-theme="dark" data-semantic-intent="taxonomy_list" data-relation-type="taxonomy" data-site-visual-identity="signal-cobalt">
  <style>
        @font-face {
            font-family: 'Inter';
            src: url('assets/fonts/Inter-Regular.ttf') format('truetype');
            font-weight: 400;
            font-style: normal;
            font-display: swap;
        }
        @font-face {
            font-family: 'Inter';
            src: url('assets/fonts/Inter-Bold.ttf') format('truetype');
            font-weight: 600;
            font-style: normal;
            font-display: swap;
        }
        @font-face {
            font-family: 'Inter';
            src: url('assets/fonts/Inter-Bold.ttf') format('truetype');
            font-weight: 800;
            font-style: normal;
            font-display: swap;
        }
        
:root {
    --background: #0f172a;
    --panel: #1e293b;
    --primary-text: #f1f5f9;
    --muted-text: #94a3b8;
    --inverse-text: #0f172a;
    --border: #334155;
    --shadow-color: #000000;
    --icon-pad-bg: #1e293b;
    --art-glow: #7dd3fc;
    --art-glow-opacity: 0.18;
    --art-sheen: #ffffff;
    --art-sheen-opacity: 0.18;
    --art-shadow: #000000;
    --art-shadow-opacity: 0.28;
    --art-muted-line: #64748b;
    --art-panel-tint: #1e293b;
    --semantic-risk: #f87171;
    --semantic-warning: #fb923c;
    --semantic-uncertain: #fbbf24;
    --semantic-evidence: #60a5fa;
    --semantic-claim: #c084fc;
    --semantic-positive: #4ade80;
    --semantic-outcome: #22d3ee;
    --font-family: 'Inter', 'Segoe UI', 'Kalam', Roboto, Helvetica, Arial, sans-serif;
    --radius-xl: 16px;
    --font-family-headline: 'Segoe UI Variable Display', 'Aptos Display', 'Inter', 'Segoe UI', Helvetica, Arial, sans-serif;
    --font-family-body: 'Segoe UI Variable Text', 'Aptos', 'Inter', 'Segoe UI', Helvetica, Arial, sans-serif;
    --font-heading: var(--font-family-headline);
    --font-body: var(--font-family-body);
    --font-size-h1: 64px;
    --font-size-h2: 42px;
    --font-size-h3: 29px;
    --font-size-body: 21px;
    --font-size-caption: 17px;
    --secondary-text: var(--muted-text);
    --panel-border: var(--border);
    --font-weight-normal: 400;
    --font-weight-medium: 500;
    --font-weight-semibold: 600;
    --font-weight-bold: 700;
    --spacing-gutter-pct: 0.07;
    --spacing-top-pct: 0.15;
    --spacing-bottom-pct: 0.07;
    --spacing-title-y-pct: 0.055;
    --accent-1: #93c5fd;
    --accent-2: #60a5fa;
    --accent-3: #818cf8;
    --accent-4: #a78bfa;
    --accent-5: #38bdf8;
    --accent-6: #fb923c;
}
:root[data-theme="dark"] {
    --background: #0f172a;
    --panel: #1e293b;
    --primary-text: #f1f5f9;
    --muted-text: #94a3b8;
    --inverse-text: #0f172a;
    --border: #334155;
    --shadow-color: #000000;
    --icon-pad-bg: #1e293b;
    --art-glow: #7dd3fc;
    --art-glow-opacity: 0.18;
    --art-sheen: #ffffff;
    --art-sheen-opacity: 0.18;
    --art-shadow: #000000;
    --art-shadow-opacity: 0.28;
    --art-muted-line: #64748b;
    --art-panel-tint: #1e293b;
    --semantic-risk: #f87171;
    --semantic-warning: #fb923c;
    --semantic-uncertain: #fbbf24;
    --semantic-evidence: #60a5fa;
    --semantic-claim: #c084fc;
    --semantic-positive: #4ade80;
    --semantic-outcome: #22d3ee;
    --accent-1: #93c5fd;
    --accent-2: #60a5fa;
    --accent-3: #818cf8;
    --accent-4: #a78bfa;
    --accent-5: #38bdf8;
    --accent-6: #fb923c;
}
:root[data-theme="light"] {
    --background: #f8fafc;
    --panel: #ffffff;
    --primary-text: #0f172a;
    --muted-text: #64748b;
    --inverse-text: #ffffff;
    --border: #e2e8f0;
    --shadow-color: #000000;
    --icon-pad-bg: #1e293b;
    --art-glow: #0891b2;
    --art-glow-opacity: 0.10;
    --art-sheen: #ffffff;
    --art-sheen-opacity: 0.34;
    --art-shadow: #0f172a;
    --art-shadow-opacity: 0.14;
    --art-muted-line: #94a3b8;
    --art-panel-tint: #f1f5f9;
    --semantic-risk: #b91c1c;
    --semantic-warning: #c2410c;
    --semantic-uncertain: #a16207;
    --semantic-evidence: #1d4ed8;
    --semantic-claim: #6d28d9;
    --semantic-positive: #15803d;
    --semantic-outcome: #0e7490;
    --accent-1: #1d4ed8;
    --accent-2: #2563eb;
    --accent-3: #4f46e5;
    --accent-4: #6d28d9;
    --accent-5: #0369a1;
    --accent-6: #c2410c;
}</style>
  <rect x="0" y="0" width="1.92E+3" height="1.08E+3" fill="#0f172a" stroke="none" id="programmatic_background"/>
  <line id="HEADER_DECOR" x1="960.0" x2="1080.0" y1="135.0" y2="135.0" stroke="var(--accent-1)" stroke-width="6" stroke-linecap="round"/>
  <defs>
    <pattern id="svg0471bcc7-napkin-hatch" patternUnits="userSpaceOnUse" width="12" height="12">
      <path d="M -3 12 L 12 -3 M 0 15 L 15 0" fill="none" stroke="var(--primary-text)" stroke-width="1" stroke-opacity="0.05"/>
    </pattern>
    <radialGradient id="svg0471bcc7-universal-edge-vignette" cx="50%" cy="50%" r="72%">
      <stop offset="0%" stop-color="var(--background)" stop-opacity="0"/>
      <stop offset="72%" stop-color="var(--background)" stop-opacity="0.12"/>
      <stop offset="100%" stop-color="var(--primary-text)" stop-opacity="0.08"/>
    </radialGradient>
    <linearGradient id="svg0471bcc7-universal-surface-sheen" x1="0%" y1="0%" x2="100%" y2="100%">
      <stop offset="0%" stop-color="var(--art-sheen)" stop-opacity="var(--art-sheen-opacity)"/>
      <stop offset="46%" stop-color="var(--art-sheen)" stop-opacity="0.035"/>
      <stop offset="100%" stop-color="var(--art-panel-tint)" stop-opacity="0.14"/>
    </linearGradient>
    <radialGradient id="svg0471bcc7-universal-icon-aura" cx="50%" cy="42%" r="64%">
      <stop offset="0%" stop-color="var(--art-glow)" stop-opacity="var(--art-glow-opacity)"/>
      <stop offset="100%" stop-color="var(--background)" stop-opacity="0"/>
    </radialGradient>
    <filter id="svg0471bcc7-text-glow" x="-20%" y="-20%" width="140%" height="140%">
      <feDropShadow dx="0" dy="0" stdDeviation="2" flood-color="#000000" flood-opacity="0.4"/>
    </filter>
    <filter id="svg0471bcc7-shadow" x="-30%" y="-30%" width="160%" height="160%">
      <feDropShadow dx="0" dy="2" stdDeviation="3" flood-color="#000000" flood-opacity="0.08"/>
      <feDropShadow dx="0" dy="6" stdDeviation="10" flood-color="#000000" flood-opacity="0.12"/>
    </filter>
    <marker id="svg0471bcc7-arrowhead" markerWidth="10" markerHeight="7" refX="9" refY="3.5" orient="auto" markerUnits="strokeWidth">
      <polygon points="0 0, 10 3.5, 0 7" fill="var(--muted-text)" opacity="0.6"/>
    </marker>
  </defs>
  <rect width="100%" height="100%" fill="var(--background)" id="CANVAS_BG"/>
  <rect width="100%" height="100%" fill="url(#svg0471bcc7-napkin-hatch)"/>
  <rect id="UNIVERSAL_EDGE_VIGNETTE" width="100%" height="100%" fill="url(#svg0471bcc7-universal-edge-vignette)" opacity="0.62"/>
  <text id="TITLE" x="960.0" y="59" text-anchor="middle" font-weight="700" font-size="63" fill="#f1f5f9" style="font-size: 69px; font-family: 'Segoe UI Variable Display', 'Aptos Display', 'Inter', 'Segoe UI', Helvetica, Arial, sans-serif; font-weight: 800; font-kerning: normal; font-feature-settings: &quot;kern&quot; 1, &quot;liga&quot; 1; letter-spacing:-1.2px;" data-final-font-size="69">
    <tspan x="960.0" dy="70.47px">Technical Obstacles in Ramey Memo Analysis</tspan>
  </text>
  <rect id="TITLE_FRAME" x="134" y="59" width="1652" height="103" fill="none"/>
  <g id="DIAGRAM_SCALER" transform="translate(50.3, 35.1) scale(0.95)">
    <g transform="translate(345.0, 360.0)">
      <rect id="ITEM_1_BG" x="-270" y="-135" width="540" height="270" rx="22" fill="var(--accent-1)" stroke="var(--accent-1)" stroke-width="2" fill-opacity="0.4"/>
      <circle cx="-180" cy="0" r="50" fill="var(--accent-1)" opacity="0.15"/>
      <g transform="translate(-30.0, -15.0)">
        <text id="ITEM_1_HEAD" text-anchor="start" font-weight="bold" font-size="36" fill="var(--primary-text)" x="-100.0" y="-84.0" data-bg-id="ITEM_1_BG" fill-opacity="1.0" stroke="none" style="font-size: 31px; font-family: 'Segoe UI Variable Display', 'Aptos Display', 'Inter', 'Segoe UI', Helvetica, Arial, sans-serif; font-weight: 700; font-kerning: normal; font-feature-settings: &quot;kern&quot; 1, &quot;liga&quot; 1; letter-spacing:-0.4px;" data-final-font-size="31">
          <tspan x="-100.0" dy="36.84px">Film Grain Interference</tspan>
        </text>
        <rect id="ITEM_1_HEAD_FRAME" x="-100" y="-84" width="380" height="48" fill="none"/>
        <text id="ITEM_1_BODY" text-anchor="start" font-size="24" fill="var(--primary-text)" x="-100.0" y="-8.0" data-bg-id="ITEM_1_BG" style="font-size: 21px; font-family: 'Segoe UI Variable Text', 'Aptos', 'Inter', 'Segoe UI', Helvetica, Arial, sans-serif; font-weight: 400; font-kerning: normal; font-feature-settings: &quot;kern&quot; 1, &quot;liga&quot; 1;" data-final-font-size="21">
          <tspan x="-100.0" dy="39.71px">Grain patterns overlap and blend</tspan>
          <tspan x="-100.0" dy="24.15px">with tiny character strokes</tspan>
        </text>
        <rect id="ITEM_1_BODY_FRAME" x="-100" y="-8" width="430" height="138" fill="none"/>
        <rect id="ITEM_1_TEXT_FRAME" x="-100" y="-4" width="380" height="128" fill="none"/>
      </g>
      <circle id="ITEM_1_PAD" cx="-186" cy="0.0" r="48" fill="var(--icon-pad-bg)" stroke="var(--accent-1)" opacity="1" fill-opacity="0.9" stroke-width="2" stroke-opacity="0.72" data-badge-layer="pad"/>
      <circle id="ITEM_1_PAD_INNER" cx="-186" cy="0.0" r="37.44" fill="var(--accent-1)" fill-opacity="0.12" stroke="none" data-badge-layer="tint"/>
      <circle cx="-186" cy="0.0" r="38" fill="none" stroke="var(--accent-1)" stroke-width="3" stroke-dasharray="6 4" display="none" data-suppressed-decoration="redundant-badge-ring"/>
      <g id="ITEM_1_ICON" transform="translate(-224, -38)" data-icon-size="76" stroke-linecap="round" stroke-linejoin="round" data-badge-treatment="clean">
        <g transform="translate(-7.037037037037036,-7.037037037037036) scale(3.753086419753086)" vector-effect="non-scaling-stroke" stroke-width="2.62" stroke-linecap="round" stroke-linejoin="round" stroke-opacity="1.0">
          <path d="M6 3l-3 3" vector-effect="non-scaling-stroke" fill="none" stroke="#f1f5f9"/>
          <path d="M21 18l-3 3" vector-effect="non-scaling-stroke" fill="none" stroke="#f1f5f9"/>
          <path d="M11 3l-8 8" vector-effect="non-scaling-stroke" fill="none" stroke="#f1f5f9"/>
          <path d="M16 3l-13 13" vector-effect="non-scaling-stroke" fill="none" stroke="#f1f5f9"/>
          <path d="M21 3l-18 18" vector-effect="non-scaling-stroke" fill="none" stroke="#f1f5f9"/>
          <path d="M21 8l-13 13" vector-effect="non-scaling-stroke" fill="none" stroke="#f1f5f9"/>
          <path d="M21 13l-8 8" vector-effect="non-scaling-stroke" fill="none" stroke="#f1f5f9"/>
        </g>
      </g>
    </g>
    <g transform="translate(960.0, 360.0)">
      <rect id="ITEM_2_BG" x="-270" y="-135" width="540" height="270" rx="22" fill="var(--accent-2)" stroke="var(--accent-2)" stroke-width="2" fill-opacity="0.4"/>
      <circle cx="-180" cy="0" r="50" fill="var(--accent-1)" opacity="0.15"/>
      <g transform="translate(-30.0, -15.0)">
        <text id="ITEM_2_HEAD" text-anchor="start" font-weight="bold" font-size="36" fill="var(--primary-text)" x="-100.0" y="-84.0" data-bg-id="ITEM_2_BG" fill-opacity="1.0" stroke="none" style="font-size: 31px; font-family: 'Segoe UI Variable Display', 'Aptos Display', 'Inter', 'Segoe UI', Helvetica, Arial, sans-serif; font-weight: 700; font-kerning: normal; font-feature-settings: &quot;kern&quot; 1, &quot;liga&quot; 1; letter-spacing:-0.4px;" data-final-font-size="31">
          <tspan x="-100.0" dy="36.84px">Scale Limitations</tspan>
        </text>
        <rect id="ITEM_2_HEAD_FRAME" x="-100" y="-84" width="380" height="48" fill="none"/>
        <text id="ITEM_2_BODY" text-anchor="start" font-size="24" fill="var(--primary-text)" x="-100.0" y="-8.0" data-bg-id="ITEM_2_BG" style="font-size: 21px; font-family: 'Segoe UI Variable Text', 'Aptos', 'Inter', 'Segoe UI', Helvetica, Arial, sans-serif; font-weight: 400; font-kerning: normal; font-feature-settings: &quot;kern&quot; 1, &quot;liga&quot; 1;" data-final-font-size="21">
          <tspan x="-100.0" dy="39.71px">Memo text occupies only 148.5</tspan>
          <tspan x="-100.0" dy="24.15px">pixels in width</tspan>
        </text>
        <rect id="ITEM_2_BODY_FRAME" x="-100" y="-8" width="430" height="138" fill="none"/>
        <rect id="ITEM_2_TEXT_FRAME" x="-100" y="-4" width="380" height="128" fill="none"/>
      </g>
      <circle id="ITEM_2_PAD" cx="-186" cy="0.0" r="48" fill="var(--icon-pad-bg)" stroke="var(--accent-2)" opacity="1" fill-opacity="0.9" stroke-width="2" stroke-opacity="0.72" data-badge-layer="pad"/>
      <circle id="ITEM_2_PAD_INNER" cx="-186" cy="0.0" r="37.44" fill="var(--accent-2)" fill-opacity="0.12" stroke="none" data-badge-layer="tint"/>
      <circle cx="-186" cy="0.0" r="38" fill="none" stroke="var(--accent-2)" stroke-width="3" stroke-dasharray="6 4" display="none" data-suppressed-decoration="redundant-badge-ring"/>
      <g id="ITEM_2_ICON" transform="translate(-224, -38)" data-icon-size="76" stroke-linecap="round" stroke-linejoin="round" data-badge-treatment="clean">
        <g transform="translate(-3.2203389830508473,-3.2203389830508473) scale(3.4350282485875705)" vector-effect="non-scaling-stroke" stroke-width="2.62" stroke-linecap="round" stroke-linejoin="round" stroke-opacity="1.0">
          <path d="M21.3 15.3a2.4 2.4 0 0 1 0 3.4l-2.6 2.6a2.4 2.4 0 0 1-3.4 0L2.7 8.7a2.41 2.41 0 0 1 0-3.4l2.6-2.6a2.41 2.41 0 0 1 3.4 0Z" vector-effect="non-scaling-stroke" fill="none" stroke="#f1f5f9"/>
          <path d="m14.5 12.5 2-2" vector-effect="non-scaling-stroke" fill="none" stroke="#f1f5f9"/>
          <path d="m11.5 9.5 2-2" vector-effect="non-scaling-stroke" fill="none" stroke="#f1f5f9"/>
          <path d="m8.5 6.5 2-2" vector-effect="non-scaling-stroke" fill="none" stroke="#f1f5f9"/>
          <path d="m17.5 15.5 2-2" vector-effect="non-scaling-stroke" fill="none" stroke="#f1f5f9"/>
        </g>
      </g>
    </g>
    <g transform="translate(1575.0, 360.0)">
      <rect id="ITEM_3_BG" x="-270" y="-135" width="540" height="270" rx="22" fill="var(--accent-3)" stroke="var(--accent-3)" stroke-width="2" fill-opacity="0.4"/>
      <circle cx="-180" cy="0" r="50" fill="var(--accent-1)" opacity="0.15"/>
      <g transform="translate(-30.0, -15.0)">
        <text id="ITEM_3_HEAD" text-anchor="start" font-weight="bold" font-size="36" fill="var(--primary-text)" x="-100.0" y="-84.0" data-bg-id="ITEM_3_BG" fill-opacity="1.0" stroke="none" style="font-size: 31px; font-family: 'Segoe UI Variable Display', 'Aptos Display', 'Inter', 'Segoe UI', Helvetica, Arial, sans-serif; font-weight: 700; font-kerning: normal; font-feature-settings: &quot;kern&quot; 1, &quot;liga&quot; 1; letter-spacing:-0.4px;" data-final-font-size="31">
          <tspan x="-100.0" dy="36.84px">Archival Degradation</tspan>
        </text>
        <rect id="ITEM_3_HEAD_FRAME" x="-100" y="-84" width="380" height="48" fill="none"/>
        <text id="ITEM_3_BODY" text-anchor="start" font-size="24" fill="var(--primary-text)" x="-100.0" y="-8.0" data-bg-id="ITEM_3_BG" style="font-size: 21px; font-family: 'Segoe UI Variable Text', 'Aptos', 'Inter', 'Segoe UI', Helvetica, Arial, sans-serif; font-weight: 400; font-kerning: normal; font-feature-settings: &quot;kern&quot; 1, &quot;liga&quot; 1;" data-final-font-size="21">
          <tspan x="-100.0" dy="39.71px">Dust and scratches exist but do not</tspan>
          <tspan x="-100.0" dy="24.15px">block reading</tspan>
        </text>
        <rect id="ITEM_3_BODY_FRAME" x="-100" y="-8" width="430" height="138" fill="none"/>
        <rect id="ITEM_3_TEXT_FRAME" x="-100" y="-4" width="380" height="128" fill="none"/>
      </g>
      <circle id="ITEM_3_PAD" cx="-186" cy="0.0" r="48" fill="var(--icon-pad-bg)" stroke="var(--accent-3)" opacity="1" fill-opacity="0.9" stroke-width="2" stroke-opacity="0.72" data-badge-layer="pad"/>
      <circle id="ITEM_3_PAD_INNER" cx="-186" cy="0.0" r="37.44" fill="var(--accent-3)" fill-opacity="0.12" stroke="none" data-badge-layer="tint"/>
      <circle cx="-186" cy="0.0" r="38" fill="none" stroke="var(--accent-3)" stroke-width="3" stroke-dasharray="6 4" display="none" data-suppressed-decoration="redundant-badge-ring"/>
      <g id="ITEM_3_ICON" transform="translate(-224, -38)" data-icon-size="76" stroke-linecap="round" stroke-linejoin="round" data-badge-treatment="clean">
        <g transform="translate(-9.927927927927929,-5.4774774774774775) scale(2.7387387387387387)">
          <path d="M14.9996 20.1799C14.9996 20.1799 15.6647 19.9757 16.3879 20.0982L18.8205 21.539C19.3805 22.1924 19.3805 23.0149 19.3805 23.0149C19.4505 24.3974 18.8555 26.0307 18.6338 26.7948C18.0213 28.6907 16.5805 29.5073 14.9996 29.5482L7.00221 29.6007C6.53551 29.624 5.50305 29.0523 6.5764 27.9907C7.73722 26.8707 11.6514 23.4465 12.9055 21.8015C12.9055 21.8015 13.5763 20.6757 14.9996 20.1799Z" fill="#FFB02E"/>
          <path d="M28.186 2.30838C28.8441 2.68729 29.0705 3.52796 28.6916 4.18606L19.1916 20.6861L16.8083 19.3139L26.3083 2.81391C26.6873 2.15581 27.5279 1.92947 28.186 2.30838Z" fill="#7D4533"/>
          <path d="M19.3789 20.3437L17 19C17 19 16.4726 18.8867 16.2188 19.2891C15.8242 19.9648 16.293 20.1953 16.293 20.1953L18.6914 21.5859C19.0195 21.7695 19.9844 21.3281 19.3789 20.3437Z" fill="#9B9B9B"/>
          <path d="M13.2976 21.1798C13.1153 21.0814 12.8879 21.1494 12.7895 21.3316C12.6911 21.5139 12.7591 21.7414 12.9413 21.8398L19.0419 25.133C19.2241 25.2314 19.4516 25.1634 19.55 24.9812C19.6484 24.7989 19.5804 24.5714 19.3982 24.4731L13.2976 21.1798Z" fill="#F8312F"/>
          <path d="M12.2971 22.4388C12.1145 22.3411 11.8873 22.4099 11.7896 22.5925C11.6918 22.7751 11.7607 23.0023 11.9433 23.1001L18.6058 26.6653C18.7884 26.7631 19.0156 26.6942 19.1133 26.5116C19.211 26.329 19.1422 26.1018 18.9596 26.0041L12.2971 22.4388Z" fill="#F8312F"/>
        </g>
      </g>
    </g>
    <g transform="translate(652.5, 720.0)">
      <rect id="ITEM_4_BG" x="-270" y="-135" width="540" height="270" rx="22" fill="var(--accent-1)" stroke="var(--accent-4)" stroke-width="2" fill-opacity="0.4"/>
      <circle cx="-180" cy="0" r="50" fill="var(--accent-1)" opacity="0.15"/>
      <g transform="translate(-30.0, -15.0)">
        <text id="ITEM_4_HEAD" text-anchor="start" font-weight="bold" font-size="36" fill="var(--primary-text)" x="-100.0" y="-84.0" data-bg-id="ITEM_4_BG" fill-opacity="1.0" stroke="none" style="font-size: 31px; font-family: 'Segoe UI Variable Display', 'Aptos Display', 'Inter', 'Segoe UI', Helvetica, Arial, sans-serif; font-weight: 700; font-kerning: normal; font-feature-settings: &quot;kern&quot; 1, &quot;liga&quot; 1; letter-spacing:-0.4px;" data-final-font-size="31">
          <tspan x="-100.0" dy="36.84px">Subjective Interpretation</tspan>
        </text>
        <rect id="ITEM_4_HEAD_FRAME" x="-100" y="-84" width="380" height="48" fill="none"/>
        <text id="ITEM_4_BODY" text-anchor="start" font-size="24" fill="var(--primary-text)" x="-100.0" y="-8.0" data-bg-id="ITEM_4_BG" style="font-size: 21px; font-family: 'Segoe UI Variable Text', 'Aptos', 'Inter', 'Segoe UI', Helvetica, Arial, sans-serif; font-weight: 400; font-kerning: normal; font-feature-settings: &quot;kern&quot; 1, &quot;liga&quot; 1;" data-final-font-size="21">
          <tspan x="-100.0" dy="39.71px">Different processing choices favor</tspan>
          <tspan x="-100.0" dy="24.15px">different visual readings</tspan>
        </text>
        <rect id="ITEM_4_BODY_FRAME" x="-100" y="-8" width="430" height="138" fill="none"/>
        <rect id="ITEM_4_TEXT_FRAME" x="-100" y="-4" width="380" height="128" fill="none"/>
      </g>
      <circle id="ITEM_4_PAD" cx="-186" cy="0.0" r="48" fill="var(--icon-pad-bg)" stroke="var(--accent-1)" opacity="1" fill-opacity="0.9" stroke-width="2" stroke-opacity="0.72" data-badge-layer="pad"/>
      <circle id="ITEM_4_PAD_INNER" cx="-186" cy="0.0" r="37.44" fill="var(--accent-1)" fill-opacity="0.12" stroke="none" data-badge-layer="tint"/>
      <circle cx="-186" cy="0.0" r="38" fill="none" stroke="var(--accent-4)" stroke-width="3" stroke-dasharray="6 4" display="none" data-suppressed-decoration="redundant-badge-ring"/>
      <g id="ITEM_4_ICON" transform="translate(-224, -38)" data-icon-size="76" stroke-linecap="round" stroke-linejoin="round" data-badge-treatment="clean">
        <g transform="translate(-2.533333333333333,-3.166666666666668) scale(2.533333333333333)">
          <path d="M30.893 15C30.044 7.683 23.834 2 16.289 2H15.057C7.293 2 1 8.293 1 16.057C1 18.787 3.213 21 5.943 21H8.025C8.278 23.803 10.631 26 13.5 26H24C27.17 26 29.845 23.891 30.706 21C30.895 20.366 31 19.695 31 19V16.711C31 16.131 30.958 15.562 30.893 15Z" fill="#FF6DC6"/>
          <path d="M25 25.982V29.586C25 30.254 24.192 30.589 23.72 30.116L19.604 26L25 25.982Z" fill="#F70A8D"/>
          <path d="M10.178 7.536C10.285 7.503 10.367 7.407 10.377 7.287C10.45 6.417 10.508 5.544 10.5 4.659C10.221 5.413 10 6.177 9.79203 6.943C7.93903 7.238 6.17903 8.228 4.94903 9.671C3.66703 11.148 2.93203 13.106 3.05503 15C3.58403 13.192 4.45103 11.598 5.66503 10.315C6.87703 9.036 8.40603 8.087 10.122 7.553L10.178 7.536ZM19.682 5.159C19.412 4.594 18.935 4.134 18.372 3.822C17.81 3.502 17.152 3.349 16.5 3.341C15.848 3.351 15.191 3.504 14.629 3.824C14.067 4.135 13.589 4.595 13.318 5.159C14.427 4.616 15.441 4.334 16.5 4.341C17.559 4.336 18.57 4.617 19.682 5.159ZM11.055 15.098C10.75 15.192 10.459 15.325 10.176 15.477C10.166 15.385 10.154 15.293 10.133 15.203C10.035 14.761 9.79203 14.355 9.47503 14.026C8.83403 13.382 7.79803 13.091 7.00003 13.5C7.77503 13.902 8.30103 14.259 8.76803 14.732C9.08703 15.048 9.35203 15.396 9.61503 15.823C9.36503 16 9.12303 16.19 8.90403 16.404C8.30903 17.01 7.84303 17.749 7.59603 18.554C7.34303 19.354 7.29203 20.213 7.50003 21C7.90203 19.438 8.58103 18.134 9.61003 17.11C10.631 16.079 11.938 15.4 13.5 15C12.713 14.794 11.854 14.845 11.055 15.098ZM23.042 19.538C22.622 19.615 22.063 19.536 21.511 19.528L19.872 19.5C19.141 19.505 18.409 19.525 17.678 19.555C18.185 19.002 18.393 18.142 18 17.5C17.597 18.145 17.295 18.539 16.914 18.914C16.651 19.179 16.374 19.408 16.013 19.66C15.115 19.735 14.217 19.837 13.319 20C15.504 20.396 17.688 20.485 19.873 20.5L20.229 20.494C20.488 20.687 20.707 20.875 20.915 21.086C21.294 21.462 21.596 21.856 22.001 22.5C22.21 22.171 22.249 21.77 22.171 21.394C22.106 21.047 21.921 20.733 21.686 20.465L22.332 20.437C22.594 20.435 22.956 20.396 23.243 20.291C24.474 19.921 25.238 18.605 25.002 17.501C24.792 18.598 23.957 19.385 23.042 19.538ZM29.365 16.863C29.094 15.997 28.591 15.204 27.949 14.551C27.296 13.91 26.502 13.407 25.636 13.136C25.105 12.964 24.55 12.886 24.001 12.891C24.616 12.249 25.101 11.478 25.364 10.636C25.643 9.776 25.706 8.853 25.5 8C25.1 9.693 24.367 11.129 23.243 12.243C22.127 13.366 20.693 14.097 19 14.5C19.853 14.708 20.777 14.645 21.637 14.365C22.384 14.131 23.071 13.717 23.667 13.198C25.068 13.623 26.282 14.286 27.244 15.256C28.367 16.372 29.098 17.806 29.501 19.499C29.708 18.647 29.645 17.723 29.365 16.863Z" fill="#F70A8D"/>
        </g>
      </g>
    </g>
    <g transform="translate(1267.5, 720.0)">
      <rect id="ITEM_5_BG" x="-270" y="-135" width="540" height="270" rx="22" fill="var(--accent-2)" stroke="var(--accent-5)" stroke-width="2" fill-opacity="0.4"/>
      <circle cx="-180" cy="0" r="50" fill="var(--accent-1)" opacity="0.15"/>
      <g transform="translate(-30.0, -15.0)">
        <text id="ITEM_5_HEAD" text-anchor="start" font-weight="bold" font-size="36" fill="var(--primary-text)" x="-100.0" y="-84.0" data-bg-id="ITEM_5_BG" fill-opacity="1.0" stroke="none" style="font-size: 31px; font-family: 'Segoe UI Variable Display', 'Aptos Display', 'Inter', 'Segoe UI', Helvetica, Arial, sans-serif; font-weight: 700; font-kerning: normal; font-feature-settings: &quot;kern&quot; 1, &quot;liga&quot; 1; letter-spacing:-0.4px;" data-final-font-size="31">
          <tspan x="-100.0" dy="36.84px">Data Volume Paradox</tspan>
        </text>
        <rect id="ITEM_5_HEAD_FRAME" x="-100" y="-84" width="380" height="48" fill="none"/>
        <text id="ITEM_5_BODY" text-anchor="start" font-size="24" fill="var(--primary-text)" x="-100.0" y="-8.0" data-bg-id="ITEM_5_BG" style="font-size: 21px; font-family: 'Segoe UI Variable Text', 'Aptos', 'Inter', 'Segoe UI', Helvetica, Arial, sans-serif; font-weight: 400; font-kerning: normal; font-feature-settings: &quot;kern&quot; 1, &quot;liga&quot; 1;" data-final-font-size="21">
          <tspan x="-100.0" dy="39.71px">Large 27 GB data sets do not</tspan>
          <tspan x="-100.0" dy="24.15px">guarantee clarity</tspan>
        </text>
        <rect id="ITEM_5_BODY_FRAME" x="-100" y="-8" width="430" height="138" fill="none"/>
        <rect id="ITEM_5_TEXT_FRAME" x="-100" y="-4" width="380" height="128" fill="none"/>
      </g>
      <circle id="ITEM_5_PAD" cx="-186" cy="0.0" r="48" fill="var(--icon-pad-bg)" stroke="var(--accent-2)" opacity="1" fill-opacity="0.9" stroke-width="2" stroke-opacity="0.72" data-badge-layer="pad"/>
      <circle id="ITEM_5_PAD_INNER" cx="-186" cy="0.0" r="37.44" fill="var(--accent-2)" fill-opacity="0.12" stroke="none" data-badge-layer="tint"/>
      <circle cx="-186" cy="0.0" r="38" fill="none" stroke="var(--accent-5)" stroke-width="3" stroke-dasharray="6 4" display="none" data-suppressed-decoration="redundant-badge-ring"/>
      <g id="ITEM_5_ICON" transform="translate(-224, -38)" data-icon-size="76" stroke-linecap="round" stroke-linejoin="round" data-badge-treatment="clean">
        <g transform="translate(-3.2203389830508473,-3.2203389830508473) scale(3.4350282485875705)" vector-effect="non-scaling-stroke" stroke-width="2.62" stroke-linecap="round" stroke-linejoin="round" stroke-opacity="1.0">
          <rect width="20" height="8" x="2" y="2" rx="2" ry="2" vector-effect="non-scaling-stroke" fill="none" stroke="#f1f5f9"/>
          <rect width="20" height="8" x="2" y="14" rx="2" ry="2" vector-effect="non-scaling-stroke" fill="none" stroke="#f1f5f9"/>
          <line x1="6" x2="6.01" y1="6" y2="6" vector-effect="non-scaling-stroke" fill="none" stroke="#f1f5f9"/>
          <line x1="6" x2="6.01" y1="18" y2="18" vector-effect="non-scaling-stroke" fill="none" stroke="#f1f5f9"/>
        </g>
      </g>
    </g>
  </g>
  <text id="SOURCE_NOTE" x="134.0" y="1058.0" fill="var(--muted-text)" opacity="1" style="font-family: var(--font-family); font-size: 20px;">Source: Research Gate(PDF) A Grounded Theory Update on the Roswell UFO Incident</text>
  <text id="EDITORIAL_NOTE" x="1786.0" y="1058.0" fill="var(--semantic-uncertain)" opacity="1" style="font-family: var(--font-family); font-size: 20px;" text-anchor="end">Interpretations remain disputed; wording reflects source uncertainty.</text>
</svg>
