<?xml version='1.0' encoding='utf-8'?>
<svg xmlns="http://www.w3.org/2000/svg" width="1920" height="1080" viewBox="0 0 1920 1080" data-theme="light" data-semantic-intent="sequence" data-relation-type="sequence" data-site-visual-identity="signal-cobalt">
  <style>
        @font-face {
            font-family: 'Inter';
            src: url('assets/fonts/Inter-Regular.ttf') format('truetype');
            font-weight: 400;
            font-style: normal;
            font-display: swap;
        }
        @font-face {
            font-family: 'Inter';
            src: url('assets/fonts/Inter-Bold.ttf') format('truetype');
            font-weight: 600;
            font-style: normal;
            font-display: swap;
        }
        @font-face {
            font-family: 'Inter';
            src: url('assets/fonts/Inter-Bold.ttf') format('truetype');
            font-weight: 800;
            font-style: normal;
            font-display: swap;
        }
        
:root {
    --background: #f8fafc;
    --panel: #ffffff;
    --primary-text: #0f172a;
    --muted-text: #64748b;
    --inverse-text: #ffffff;
    --border: #e2e8f0;
    --shadow-color: #000000;
    --icon-pad-bg: #1e293b;
    --art-glow: #0891b2;
    --art-glow-opacity: 0.10;
    --art-sheen: #ffffff;
    --art-sheen-opacity: 0.34;
    --art-shadow: #0f172a;
    --art-shadow-opacity: 0.14;
    --art-muted-line: #94a3b8;
    --art-panel-tint: #f1f5f9;
    --semantic-risk: #b91c1c;
    --semantic-warning: #c2410c;
    --semantic-uncertain: #a16207;
    --semantic-evidence: #1d4ed8;
    --semantic-claim: #6d28d9;
    --semantic-positive: #15803d;
    --semantic-outcome: #0e7490;
    --font-family: 'Inter', 'Segoe UI', 'Kalam', Roboto, Helvetica, Arial, sans-serif;
    --radius-xl: 16px;
    --font-family-headline: 'Segoe UI Variable Display', 'Aptos Display', 'Inter', 'Segoe UI', Helvetica, Arial, sans-serif;
    --font-family-body: 'Segoe UI Variable Text', 'Aptos', 'Inter', 'Segoe UI', Helvetica, Arial, sans-serif;
    --font-heading: var(--font-family-headline);
    --font-body: var(--font-family-body);
    --font-size-h1: 64px;
    --font-size-h2: 42px;
    --font-size-h3: 29px;
    --font-size-body: 21px;
    --font-size-caption: 17px;
    --secondary-text: var(--muted-text);
    --panel-border: var(--border);
    --font-weight-normal: 400;
    --font-weight-medium: 500;
    --font-weight-semibold: 600;
    --font-weight-bold: 700;
    --spacing-gutter-pct: 0.07;
    --spacing-top-pct: 0.15;
    --spacing-bottom-pct: 0.07;
    --spacing-title-y-pct: 0.055;
    --accent-1: #1d4ed8;
    --accent-2: #2563eb;
    --accent-3: #4f46e5;
    --accent-4: #6d28d9;
    --accent-5: #0369a1;
    --accent-6: #c2410c;
}
:root[data-theme="dark"] {
    --background: #0f172a;
    --panel: #1e293b;
    --primary-text: #f1f5f9;
    --muted-text: #94a3b8;
    --inverse-text: #0f172a;
    --border: #334155;
    --shadow-color: #000000;
    --icon-pad-bg: #1e293b;
    --art-glow: #7dd3fc;
    --art-glow-opacity: 0.18;
    --art-sheen: #ffffff;
    --art-sheen-opacity: 0.18;
    --art-shadow: #000000;
    --art-shadow-opacity: 0.28;
    --art-muted-line: #64748b;
    --art-panel-tint: #1e293b;
    --semantic-risk: #f87171;
    --semantic-warning: #fb923c;
    --semantic-uncertain: #fbbf24;
    --semantic-evidence: #60a5fa;
    --semantic-claim: #c084fc;
    --semantic-positive: #4ade80;
    --semantic-outcome: #22d3ee;
    --accent-1: #93c5fd;
    --accent-2: #60a5fa;
    --accent-3: #818cf8;
    --accent-4: #a78bfa;
    --accent-5: #38bdf8;
    --accent-6: #fb923c;
}
:root[data-theme="light"] {
    --background: #f8fafc;
    --panel: #ffffff;
    --primary-text: #0f172a;
    --muted-text: #64748b;
    --inverse-text: #ffffff;
    --border: #e2e8f0;
    --shadow-color: #000000;
    --icon-pad-bg: #1e293b;
    --art-glow: #0891b2;
    --art-glow-opacity: 0.10;
    --art-sheen: #ffffff;
    --art-sheen-opacity: 0.34;
    --art-shadow: #0f172a;
    --art-shadow-opacity: 0.14;
    --art-muted-line: #94a3b8;
    --art-panel-tint: #f1f5f9;
    --semantic-risk: #b91c1c;
    --semantic-warning: #c2410c;
    --semantic-uncertain: #a16207;
    --semantic-evidence: #1d4ed8;
    --semantic-claim: #6d28d9;
    --semantic-positive: #15803d;
    --semantic-outcome: #0e7490;
    --accent-1: #1d4ed8;
    --accent-2: #2563eb;
    --accent-3: #4f46e5;
    --accent-4: #6d28d9;
    --accent-5: #0369a1;
    --accent-6: #c2410c;
}</style>
  <rect x="0" y="0" width="1.92E+3" height="1.08E+3" fill="#f8fafc" stroke="none" id="programmatic_background"/>
  <line id="HEADER_DECOR" x1="960.0" x2="1080.0" y1="125.0" y2="125.0" stroke="var(--accent-1)" stroke-width="6" stroke-linecap="round"/>
  <defs>
    <pattern id="svg61465427-napkin-hatch" patternUnits="userSpaceOnUse" width="12" height="12">
      <path d="M -3 12 L 12 -3 M 0 15 L 15 0" fill="none" stroke="var(--primary-text)" stroke-width="1" stroke-opacity="0.05"/>
    </pattern>
    <filter id="svg61465427-shadow" x="-30%" y="-30%" width="160%" height="160%">
      <feDropShadow dx="0" dy="3" stdDeviation="6" flood-color="#000000" flood-opacity="0.10"/>
      <feDropShadow dx="0" dy="8" stdDeviation="12" flood-color="#000000" flood-opacity="0.16"/>
    </filter>
    <marker id="svg61465427-arrowhead" markerWidth="12" markerHeight="12" refX="10" refY="6" orient="auto">
      <path d="M 0 0 L 12 6 L 0 12 Z" fill="var(--muted-text)"/>
    </marker>
    <radialGradient id="svg61465427-universal-edge-vignette" cx="50%" cy="50%" r="72%">
      <stop offset="0%" stop-color="var(--background)" stop-opacity="0"/>
      <stop offset="72%" stop-color="var(--background)" stop-opacity="0.12"/>
      <stop offset="100%" stop-color="var(--primary-text)" stop-opacity="0.08"/>
    </radialGradient>
    <linearGradient id="svg61465427-universal-surface-sheen" x1="0%" y1="0%" x2="100%" y2="100%">
      <stop offset="0%" stop-color="var(--art-sheen)" stop-opacity="var(--art-sheen-opacity)"/>
      <stop offset="46%" stop-color="var(--art-sheen)" stop-opacity="0.035"/>
      <stop offset="100%" stop-color="var(--art-panel-tint)" stop-opacity="0.14"/>
    </linearGradient>
    <radialGradient id="svg61465427-universal-icon-aura" cx="50%" cy="42%" r="64%">
      <stop offset="0%" stop-color="var(--art-glow)" stop-opacity="var(--art-glow-opacity)"/>
      <stop offset="100%" stop-color="var(--background)" stop-opacity="0"/>
    </radialGradient>
    <filter id="svg61465427-text-glow" x="-20%" y="-20%" width="140%" height="140%">
      <feDropShadow dx="0" dy="0" stdDeviation="2" flood-color="#000000" flood-opacity="0.4"/>
    </filter>
  </defs>
  <rect width="100%" height="100%" fill="var(--background)" id="CANVAS_BG"/>
  <rect width="100%" height="100%" fill="url(#svg61465427-napkin-hatch)"/>
  <rect id="UNIVERSAL_EDGE_VIGNETTE" width="100%" height="100%" fill="url(#svg61465427-universal-edge-vignette)" opacity="0.62"/>
  <text id="TITLE" x="960.0" y="59" text-anchor="middle" font-size="58" font-weight="800" fill="#0f172a" style="font-size: 69px; font-family: 'Segoe UI Variable Display', 'Aptos Display', 'Inter', 'Segoe UI', Helvetica, Arial, sans-serif; font-weight: 800; font-kerning: normal; font-feature-settings: &quot;kern&quot; 1, &quot;liga&quot; 1; letter-spacing:-1.2px;" data-final-font-size="69">
    <tspan x="960.0" dy="70.47px">Fort Worth Photographic Session Key Stages</tspan>
  </text>
  <rect id="TITLE_FRAME" x="134" y="56" width="1652" height="98" fill="none"/>
  <rect x="120" y="165" width="1680" height="820" rx="40" fill="var(--panel)" fill-opacity="0.22" stroke="var(--muted-text)" stroke-width="2.4" opacity="0.92"/>
  <path d="M 262.0 287.0 Q 311.0 287.0 360.0 447.0 Q 409.0 447.0 458.0 607.0 Q 507.0 607.0 556.0 767.0" fill="none" stroke="var(--muted-text)" stroke-width="10" stroke-linecap="round" stroke-linejoin="round" opacity="0.36" marker-end="url(#svg61465427-arrowhead)"/>
  <g id="DIAGRAM_MAIN" transform="translate(-60 -20) scale(1.08)">
    <g filter="url(#svg61465427-shadow)">
      <rect id="ITEM_1_BG" x="180.0" y="210.0" width="1030" height="176" rx="24" fill="var(--panel)" fill-opacity="0.97" stroke="var(--accent-1)" stroke-width="2.5"/>
      <rect x="180.0" y="210.0" width="1030" height="18" rx="9" fill="var(--accent-1)" fill-opacity="0.55"/>
      <circle id="ITEM_1_PAD" cx="262.0" cy="287.0" r="40" fill="var(--icon-pad-bg)" opacity="1" fill-opacity="0.9" stroke-width="2" stroke="var(--accent-1)" stroke-opacity="0.72" data-badge-layer="pad"/>
      <circle id="ITEM_1_PAD_INNER" cx="262.0" cy="287.0" r="31.20" fill="var(--accent-1)" fill-opacity="0.12" stroke="none" data-badge-layer="tint"/>
      <circle cx="262.0" cy="287.0" r="32" fill="none" stroke="var(--accent-1)" stroke-width="3" stroke-dasharray="6 4" display="none" data-suppressed-decoration="redundant-badge-ring"/>
      <g id="ITEM_1_ICON" transform="translate(232.0, 257.0)" data-icon-size="60" stroke-linecap="round" stroke-linejoin="round" data-badge-treatment="clean">
        <g transform="translate(-6.977777777777783,-6.977777777777781) scale(3.081481481481482)" vector-effect="non-scaling-stroke" stroke-width="2.43" stroke-linecap="round" stroke-linejoin="round" stroke-opacity="1.0">
          <path d="M16 3l-4 5l-4 -5" vector-effect="non-scaling-stroke" fill="none" stroke="#f1f5f9"/>
          <path d="M12 19a2 2 0 0 1 -2 2h-4a2 2 0 0 1 -2 -2v-8.172a2 2 0 0 1 .586 -1.414l.828 -.828a2 2 0 0 0 .586 -1.414v-2.172a2 2 0 0 1 2 -2h8a2 2 0 0 1 2 2v2.172a2 2 0 0 0 .586 1.414l.828 .828a2 2 0 0 1 .586 1.414v8.172a2 2 0 0 1 -2 2h-4a2 2 0 0 1 -2 -2z" vector-effect="non-scaling-stroke" fill="none" stroke="#f1f5f9"/>
          <path d="M20 13h-3a1 1 0 0 0 -1 1v2a1 1 0 0 0 1 1h3" vector-effect="non-scaling-stroke" fill="none" stroke="#f1f5f9"/>
          <path d="M4 17h3a1 1 0 0 0 1 -1v-2a1 1 0 0 0 -1 -1h-3" vector-effect="non-scaling-stroke" fill="none" stroke="#f1f5f9"/>
          <path d="M12 19v-11" vector-effect="non-scaling-stroke" fill="none" stroke="#f1f5f9"/>
        </g>
      </g>
      <rect x="335.0" y="238.0" width="740.0" height="24" rx="12" fill="var(--accent-1)" fill-opacity="0.08"/>
      <text x="1176.0" y="252.0" text-anchor="end" font-size="17" font-weight="800" fill="var(--accent-1)" opacity="0.72">01</text>
      <text id="ITEM_1_HEAD" x="348.0" y="228.0" text-anchor="start" font-weight="800" font-size="30" fill="var(--accent-1)" data-bg-id="ITEM_1_BG" fill-opacity="1.0" style="font-size: 31px; font-family: 'Segoe UI Variable Display', 'Aptos Display', 'Inter', 'Segoe UI', Helvetica, Arial, sans-serif; font-weight: 700; font-kerning: normal; font-feature-settings: &quot;kern&quot; 1, &quot;liga&quot; 1; letter-spacing:-0.4px;" data-final-font-size="31">
        <tspan x="348.0" dy="25.52px">Ramey Solo Frames</tspan>
      </text>
      <rect id="ITEM_1_HEAD_FRAME" x="348.0" y="228.0" width="670.0" height="34" fill="none"/>
      <text id="ITEM_1_BODY" x="348.0" y="270.0" text-anchor="start" font-size="23" fill="var(--primary-text)" data-bg-id="ITEM_1_BG" style="font-size: 23px; font-family: 'Segoe UI Variable Text', 'Aptos', 'Inter', 'Segoe UI', Helvetica, Arial, sans-serif; font-weight: 400; font-kerning: normal; font-feature-settings: &quot;kern&quot; 1, &quot;liga&quot; 1;" data-final-font-size="23">
        <tspan x="348.0" dy="31.91px">Two images capture Brigadier General Ramey alone in office</tspan>
      </text>
      <rect id="ITEM_1_BODY_FRAME" x="348.0" y="270.0" width="780.0" height="94.0" fill="none"/>
    </g>
    <g filter="url(#svg61465427-shadow)">
      <rect id="ITEM_2_BG" x="278.0" y="370.0" width="1030" height="176" rx="24" fill="var(--panel)" fill-opacity="0.97" stroke="var(--accent-2)" stroke-width="2.5"/>
      <rect x="278.0" y="370.0" width="1030" height="18" rx="9" fill="var(--accent-2)" fill-opacity="0.55"/>
      <circle id="ITEM_2_PAD" cx="360.0" cy="447.0" r="40" fill="var(--icon-pad-bg)" opacity="1" fill-opacity="0.9" stroke-width="2" stroke="var(--accent-2)" stroke-opacity="0.72" data-badge-layer="pad"/>
      <circle id="ITEM_2_PAD_INNER" cx="360.0" cy="447.0" r="31.20" fill="var(--accent-2)" fill-opacity="0.12" stroke="none" data-badge-layer="tint"/>
      <circle cx="360.0" cy="447.0" r="32" fill="none" stroke="var(--accent-2)" stroke-width="3" stroke-dasharray="6 4" display="none" data-suppressed-decoration="redundant-badge-ring"/>
      <g id="ITEM_2_ICON" transform="translate(330.0, 417.0)" data-icon-size="60" stroke-linecap="round" stroke-linejoin="round" data-badge-treatment="clean">
        <g transform="translate(-5.657142857142857,-5.65714285714286) scale(2.2285714285714286)" vector-effect="non-scaling-stroke" fill="#f1f5f9" fill-opacity="1.0" stroke="none">
          <path fill="#f1f5f9" d="m25.7 9.3l-7-7c-.2-.2-.4-.3-.7-.3H8c-1.1 0-2 .9-2 2v24c0 1.1.9 2 2 2h16c1.1 0 2-.9 2-2V10c0-.3-.1-.5-.3-.7M18 4.4l5.6 5.6H18zM24 28H8V4h8v6c0 1.1.9 2 2 2h6z" vector-effect="non-scaling-stroke" stroke="none"/>
          <path fill="#f1f5f9" d="M10 22h12v2H10zm0-6h12v2H10z" vector-effect="non-scaling-stroke" stroke="none"/>
        </g>
      </g>
      <rect x="433.0" y="398.0" width="740.0" height="24" rx="12" fill="var(--accent-2)" fill-opacity="0.08"/>
      <text x="1274.0" y="412.0" text-anchor="end" font-size="17" font-weight="800" fill="var(--accent-2)" opacity="0.72">02</text>
      <text id="ITEM_2_HEAD" x="446.0" y="388.0" text-anchor="start" font-weight="800" font-size="30" fill="var(--accent-2)" data-bg-id="ITEM_2_BG" fill-opacity="1.0" style="font-size: 31px; font-family: 'Segoe UI Variable Display', 'Aptos Display', 'Inter', 'Segoe UI', Helvetica, Arial, sans-serif; font-weight: 700; font-kerning: normal; font-feature-settings: &quot;kern&quot; 1, &quot;liga&quot; 1; letter-spacing:-0.4px;" data-final-font-size="31">
        <tspan x="446.0" dy="25.52px">Ramey and DuBose</tspan>
      </text>
      <rect id="ITEM_2_HEAD_FRAME" x="446.0" y="388.0" width="670.0" height="34" fill="none"/>
      <text id="ITEM_2_BODY" x="446.0" y="430.0" text-anchor="start" font-size="23" fill="var(--primary-text)" data-bg-id="ITEM_2_BG" style="font-size: 23px; font-family: 'Segoe UI Variable Text', 'Aptos', 'Inter', 'Segoe UI', Helvetica, Arial, sans-serif; font-weight: 400; font-kerning: normal; font-feature-settings: &quot;kern&quot; 1, &quot;liga&quot; 1;" data-final-font-size="23">
        <tspan x="446.0" dy="31.91px">Two frames show Ramey with Colonel Thomas DuBose</tspan>
      </text>
      <rect id="ITEM_2_BODY_FRAME" x="446.0" y="430.0" width="780.0" height="94.0" fill="none"/>
    </g>
    <g filter="url(#svg61465427-shadow)">
      <rect id="ITEM_3_BG" x="376.0" y="530.0" width="1030" height="176" rx="24" fill="var(--panel)" fill-opacity="0.97" stroke="var(--accent-3)" stroke-width="2.5"/>
      <rect x="376.0" y="530.0" width="1030" height="18" rx="9" fill="var(--accent-3)" fill-opacity="0.55"/>
      <circle id="ITEM_3_PAD" cx="458.0" cy="607.0" r="40" fill="var(--icon-pad-bg)" opacity="1" fill-opacity="0.9" stroke-width="2" stroke="var(--accent-3)" stroke-opacity="0.72" data-badge-layer="pad"/>
      <circle id="ITEM_3_PAD_INNER" cx="458.0" cy="607.0" r="31.20" fill="var(--accent-3)" fill-opacity="0.12" stroke="none" data-badge-layer="tint"/>
      <circle cx="458.0" cy="607.0" r="32" fill="none" stroke="var(--accent-3)" stroke-width="3" stroke-dasharray="6 4" display="none" data-suppressed-decoration="redundant-badge-ring"/>
      <g id="ITEM_3_ICON" transform="translate(428.0, 577.0)" data-icon-size="60" stroke-linecap="round" stroke-linejoin="round" data-badge-treatment="clean">
        <g transform="translate(-5.65714285714286,-5.657142857142858) scale(2.2285714285714286)">
          <path d="M30 8.91016H2V22.9802H30V8.91016Z" fill="#83CBFF"/>
          <path d="M30 10.02V5.82C30 5.37 29.63 5 29.18 5H2.82C2.37 5 2 5.37 2 5.82V10.02H5.74C6.8 10.02 7.66 10.88 7.66 11.94V20C7.66 21.06 6.8 21.92 5.74 21.92H2V26.12C2 26.57 2.37 26.94 2.82 26.94H29.18C29.63 26.94 30 26.57 30 26.12V21.92H26.26C25.2 21.92 24.34 21.06 24.34 20V11.94C24.34 10.88 25.2 10.02 26.26 10.02H30ZM20.11 21.92H11.89C10.83 21.92 9.97 21.06 9.97 20V11.94C9.97 10.88 10.83 10.02 11.89 10.02H20.11C21.17 10.02 22.03 10.88 22.03 11.94V20C22.03 21.06 21.17 21.92 20.11 21.92ZM5.77001 23.39C5.95001 23.39 6.09001 23.53 6.09001 23.71V25.09C6.09001 25.27 5.95001 25.41 5.77001 25.41H4.39001C4.21001 25.41 4.07001 25.27 4.07001 25.09V23.71C4.07001 23.53 4.21001 23.39 4.39001 23.39H5.77001ZM11.23 23.39C11.41 23.39 11.55 23.53 11.55 23.71V25.09C11.55 25.27 11.41 25.41 11.23 25.41H9.85003C9.67003 25.41 9.53003 25.27 9.53003 25.09V23.71C9.53003 23.53 9.67003 23.39 9.85003 23.39H11.23ZM15.31 23.39H16.69C16.87 23.39 17.01 23.53 17.01 23.71V25.09C17.01 25.27 16.87 25.41 16.69 25.41H15.31C15.13 25.41 14.99 25.27 14.99 25.09V23.71C14.99 23.53 15.13 23.39 15.31 23.39ZM22.15 23.39C22.32 23.39 22.47 23.53 22.47 23.71V25.09C22.47 25.27 22.33 25.41 22.15 25.41H20.77C20.59 25.41 20.45 25.27 20.45 25.09V23.71C20.45 23.53 20.59 23.39 20.77 23.39H22.15ZM26.23 23.39H27.61C27.78 23.39 27.93 23.53 27.93 23.71V25.09C27.93 25.27 27.79 25.41 27.61 25.41H26.23C26.05 25.41 25.91 25.27 25.91 25.09V23.71C25.91 23.53 26.05 23.39 26.23 23.39ZM4.39001 6.47998H5.77001C5.95001 6.47998 6.09001 6.62998 6.09001 6.79998V8.17998C6.09001 8.35998 5.95001 8.49998 5.77001 8.49998H4.39001C4.21001 8.49998 4.07001 8.35998 4.07001 8.17998V6.79998C4.07001 6.61998 4.21001 6.47998 4.39001 6.47998ZM9.85003 6.47998H11.23C11.41 6.47998 11.55 6.62998 11.55 6.79998V8.17998C11.55 8.35998 11.41 8.49998 11.23 8.49998H9.85003C9.67003 8.49998 9.53003 8.35998 9.53003 8.17998V6.79998C9.53003 6.61998 9.67003 6.47998 9.85003 6.47998ZM16.69 6.47998C16.87 6.47998 17.01 6.62998 17.01 6.79998V8.17998C17.01 8.35998 16.87 8.49998 16.69 8.49998H15.31C15.13 8.49998 14.99 8.35998 14.99 8.17998V6.79998C14.99 6.61998 15.13 6.47998 15.31 6.47998H16.69ZM20.77 6.47998H22.15C22.32 6.47998 22.47 6.62998 22.47 6.79998V8.17998C22.47 8.35998 22.33 8.49998 22.15 8.49998H20.77C20.59 8.49998 20.45 8.35998 20.45 8.17998V6.79998C20.45 6.61998 20.59 6.47998 20.77 6.47998ZM27.61 6.47998C27.78 6.47998 27.93 6.62998 27.93 6.79998V8.17998C27.93 8.35998 27.79 8.49998 27.61 8.49998H26.23C26.05 8.49998 25.91 8.35998 25.91 8.17998V6.79998C25.91 6.61998 26.05 6.47998 26.23 6.47998H27.61Z" fill="#433B6B"/>
        </g>
      </g>
      <rect x="531.0" y="558.0" width="740.0" height="24" rx="12" fill="var(--accent-3)" fill-opacity="0.08"/>
      <text x="1372.0" y="572.0" text-anchor="end" font-size="17" font-weight="800" fill="var(--accent-3)" opacity="0.72">03</text>
      <text id="ITEM_3_HEAD" x="544.0" y="548.0" text-anchor="start" font-weight="800" font-size="30" fill="var(--accent-3)" data-bg-id="ITEM_3_BG" fill-opacity="1.0" style="font-size: 31px; font-family: 'Segoe UI Variable Display', 'Aptos Display', 'Inter', 'Segoe UI', Helvetica, Arial, sans-serif; font-weight: 700; font-kerning: normal; font-feature-settings: &quot;kern&quot; 1, &quot;liga&quot; 1; letter-spacing:-0.4px;" data-final-font-size="31">
        <tspan x="544.0" dy="25.52px">Marcel Debris Frames</tspan>
      </text>
      <rect id="ITEM_3_HEAD_FRAME" x="544.0" y="548.0" width="670.0" height="34" fill="none"/>
      <text id="ITEM_3_BODY" x="544.0" y="590.0" text-anchor="start" font-size="23" fill="var(--primary-text)" data-bg-id="ITEM_3_BG" style="font-size: 23px; font-family: 'Segoe UI Variable Text', 'Aptos', 'Inter', 'Segoe UI', Helvetica, Arial, sans-serif; font-weight: 400; font-kerning: normal; font-feature-settings: &quot;kern&quot; 1, &quot;liga&quot; 1;" data-final-font-size="23">
        <tspan x="544.0" dy="31.91px">Two images depict Major Marcel holding foil wreckage</tspan>
      </text>
      <rect id="ITEM_3_BODY_FRAME" x="544.0" y="590.0" width="780.0" height="94.0" fill="none"/>
    </g>
    <g filter="url(#svg61465427-shadow)">
      <rect id="ITEM_4_BG" x="474.0" y="690.0" width="1030" height="176" rx="24" fill="var(--panel)" fill-opacity="0.97" stroke="var(--accent-4)" stroke-width="2.5"/>
      <rect x="474.0" y="690.0" width="1030" height="18" rx="9" fill="var(--accent-4)" fill-opacity="0.55"/>
      <circle id="ITEM_4_PAD" cx="556.0" cy="767.0" r="40" fill="var(--icon-pad-bg)" opacity="1" fill-opacity="0.9" stroke-width="2" stroke="var(--accent-1)" stroke-opacity="0.72" data-badge-layer="pad"/>
      <circle id="ITEM_4_PAD_INNER" cx="556.0" cy="767.0" r="31.20" fill="var(--accent-1)" fill-opacity="0.12" stroke="none" data-badge-layer="tint"/>
      <circle cx="556.0" cy="767.0" r="32" fill="none" stroke="var(--accent-4)" stroke-width="3" stroke-dasharray="6 4" display="none" data-suppressed-decoration="redundant-badge-ring"/>
      <g id="ITEM_4_ICON" transform="translate(526.0, 737.0)" data-icon-size="60" stroke-linecap="round" stroke-linejoin="round" data-badge-treatment="clean">
        <g transform="translate(-3.844067796610173,-3.844067796610173) scale(2.820338983050848)" vector-effect="non-scaling-stroke" stroke-width="2.43" stroke-linecap="round" stroke-linejoin="round" stroke-opacity="1.0">
          <line x1="22" x2="2" y1="6" y2="6" vector-effect="non-scaling-stroke" fill="none" stroke="#f1f5f9"/>
          <line x1="22" x2="2" y1="18" y2="18" vector-effect="non-scaling-stroke" fill="none" stroke="#f1f5f9"/>
          <line x1="6" x2="6" y1="2" y2="22" vector-effect="non-scaling-stroke" fill="none" stroke="#f1f5f9"/>
          <line x1="18" x2="18" y1="2" y2="22" vector-effect="non-scaling-stroke" fill="none" stroke="#f1f5f9"/>
        </g>
      </g>
      <rect x="629.0" y="718.0" width="740.0" height="24" rx="12" fill="var(--accent-4)" fill-opacity="0.08"/>
      <text x="1470.0" y="732.0" text-anchor="end" font-size="17" font-weight="800" fill="var(--accent-4)" opacity="0.72">04</text>
      <text id="ITEM_4_HEAD" x="642.0" y="708.0" text-anchor="start" font-weight="800" font-size="30" fill="var(--accent-1)" data-bg-id="ITEM_4_BG" fill-opacity="1.0" style="font-size: 31px; font-family: 'Segoe UI Variable Display', 'Aptos Display', 'Inter', 'Segoe UI', Helvetica, Arial, sans-serif; font-weight: 700; font-kerning: normal; font-feature-settings: &quot;kern&quot; 1, &quot;liga&quot; 1; letter-spacing:-0.4px;" data-final-font-size="31">
        <tspan x="642.0" dy="25.52px">Newton Separate Frame</tspan>
      </text>
      <rect id="ITEM_4_HEAD_FRAME" x="642.0" y="708.0" width="670.0" height="34" fill="none"/>
      <text id="ITEM_4_BODY" x="642.0" y="750.0" text-anchor="start" font-size="23" fill="var(--primary-text)" data-bg-id="ITEM_4_BG" style="font-size: 23px; font-family: 'Segoe UI Variable Text', 'Aptos', 'Inter', 'Segoe UI', Helvetica, Arial, sans-serif; font-weight: 400; font-kerning: normal; font-feature-settings: &quot;kern&quot; 1, &quot;liga&quot; 1;" data-final-font-size="23">
        <tspan x="642.0" dy="31.91px">One final image depicts weather officer Irving Newton</tspan>
      </text>
      <rect id="ITEM_4_BODY_FRAME" x="642.0" y="750.0" width="780.0" height="94.0" fill="none"/>
    </g>
  </g>
  <text id="SOURCE_NOTE" x="134.0" y="1058.0" fill="var(--muted-text)" opacity="1" style="font-family: var(--font-family); font-size: 20px;">Source: Mav Matrix</text>
</svg>
