<?xml version='1.0' encoding='utf-8'?>
<svg xmlns="http://www.w3.org/2000/svg" width="1920" height="1080" viewBox="0 0 1920 1080" data-theme="light" data-semantic-intent="compare" data-relation-type="comparison" data-site-visual-identity="signal-cobalt">
  <style>
        @font-face {
            font-family: 'Inter';
            src: url('assets/fonts/Inter-Regular.ttf') format('truetype');
            font-weight: 400;
            font-style: normal;
            font-display: swap;
        }
        @font-face {
            font-family: 'Inter';
            src: url('assets/fonts/Inter-Bold.ttf') format('truetype');
            font-weight: 600;
            font-style: normal;
            font-display: swap;
        }
        @font-face {
            font-family: 'Inter';
            src: url('assets/fonts/Inter-Bold.ttf') format('truetype');
            font-weight: 800;
            font-style: normal;
            font-display: swap;
        }
        
:root {
    --background: #f8fafc;
    --panel: #ffffff;
    --primary-text: #0f172a;
    --muted-text: #64748b;
    --inverse-text: #ffffff;
    --border: #e2e8f0;
    --shadow-color: #000000;
    --icon-pad-bg: #1e293b;
    --art-glow: #0891b2;
    --art-glow-opacity: 0.10;
    --art-sheen: #ffffff;
    --art-sheen-opacity: 0.34;
    --art-shadow: #0f172a;
    --art-shadow-opacity: 0.14;
    --art-muted-line: #94a3b8;
    --art-panel-tint: #f1f5f9;
    --semantic-risk: #b91c1c;
    --semantic-warning: #c2410c;
    --semantic-uncertain: #a16207;
    --semantic-evidence: #1d4ed8;
    --semantic-claim: #6d28d9;
    --semantic-positive: #15803d;
    --semantic-outcome: #0e7490;
    --font-family: 'Inter', 'Segoe UI', 'Kalam', Roboto, Helvetica, Arial, sans-serif;
    --radius-xl: 16px;
    --font-family-headline: 'Segoe UI Variable Display', 'Aptos Display', 'Inter', 'Segoe UI', Helvetica, Arial, sans-serif;
    --font-family-body: 'Segoe UI Variable Text', 'Aptos', 'Inter', 'Segoe UI', Helvetica, Arial, sans-serif;
    --font-heading: var(--font-family-headline);
    --font-body: var(--font-family-body);
    --font-size-h1: 64px;
    --font-size-h2: 42px;
    --font-size-h3: 29px;
    --font-size-body: 21px;
    --font-size-caption: 17px;
    --secondary-text: var(--muted-text);
    --panel-border: var(--border);
    --font-weight-normal: 400;
    --font-weight-medium: 500;
    --font-weight-semibold: 600;
    --font-weight-bold: 700;
    --spacing-gutter-pct: 0.07;
    --spacing-top-pct: 0.15;
    --spacing-bottom-pct: 0.07;
    --spacing-title-y-pct: 0.055;
    --accent-1: #1d4ed8;
    --accent-2: #2563eb;
    --accent-3: #4f46e5;
    --accent-4: #6d28d9;
    --accent-5: #0369a1;
    --accent-6: #c2410c;
}
:root[data-theme="dark"] {
    --background: #0f172a;
    --panel: #1e293b;
    --primary-text: #f1f5f9;
    --muted-text: #94a3b8;
    --inverse-text: #0f172a;
    --border: #334155;
    --shadow-color: #000000;
    --icon-pad-bg: #1e293b;
    --art-glow: #7dd3fc;
    --art-glow-opacity: 0.18;
    --art-sheen: #ffffff;
    --art-sheen-opacity: 0.18;
    --art-shadow: #000000;
    --art-shadow-opacity: 0.28;
    --art-muted-line: #64748b;
    --art-panel-tint: #1e293b;
    --semantic-risk: #f87171;
    --semantic-warning: #fb923c;
    --semantic-uncertain: #fbbf24;
    --semantic-evidence: #60a5fa;
    --semantic-claim: #c084fc;
    --semantic-positive: #4ade80;
    --semantic-outcome: #22d3ee;
    --accent-1: #93c5fd;
    --accent-2: #60a5fa;
    --accent-3: #818cf8;
    --accent-4: #a78bfa;
    --accent-5: #38bdf8;
    --accent-6: #fb923c;
}
:root[data-theme="light"] {
    --background: #f8fafc;
    --panel: #ffffff;
    --primary-text: #0f172a;
    --muted-text: #64748b;
    --inverse-text: #ffffff;
    --border: #e2e8f0;
    --shadow-color: #000000;
    --icon-pad-bg: #1e293b;
    --art-glow: #0891b2;
    --art-glow-opacity: 0.10;
    --art-sheen: #ffffff;
    --art-sheen-opacity: 0.34;
    --art-shadow: #0f172a;
    --art-shadow-opacity: 0.14;
    --art-muted-line: #94a3b8;
    --art-panel-tint: #f1f5f9;
    --semantic-risk: #b91c1c;
    --semantic-warning: #c2410c;
    --semantic-uncertain: #a16207;
    --semantic-evidence: #1d4ed8;
    --semantic-claim: #6d28d9;
    --semantic-positive: #15803d;
    --semantic-outcome: #0e7490;
    --accent-1: #1d4ed8;
    --accent-2: #2563eb;
    --accent-3: #4f46e5;
    --accent-4: #6d28d9;
    --accent-5: #0369a1;
    --accent-6: #c2410c;
}</style>
  <rect x="0" y="0" width="1.92E+3" height="1.08E+3" fill="#f8fafc" stroke="none" id="programmatic_background"/>
  <line id="HEADER_DECOR" x1="960.0" x2="1080.0" y1="135.0" y2="135.0" stroke="var(--accent-1)" stroke-width="6" stroke-linecap="round"/>
  <defs>
    <pattern id="svg4c41816f-napkin-hatch" patternUnits="userSpaceOnUse" width="12" height="12">
      <path d="M -3 12 L 12 -3 M 0 15 L 15 0" fill="none" stroke="var(--primary-text)" stroke-width="1" stroke-opacity="0.035"/>
    </pattern>
    <filter id="svg4c41816f-soft-shadow" x="-30%" y="-30%" width="160%" height="160%">
      <feDropShadow dx="0" dy="3" stdDeviation="6" flood-color="#000000" flood-opacity="0.16"/>
    </filter>
    <radialGradient id="svg4c41816f-universal-edge-vignette" cx="50%" cy="50%" r="72%">
      <stop offset="0%" stop-color="var(--background)" stop-opacity="0"/>
      <stop offset="72%" stop-color="var(--background)" stop-opacity="0.12"/>
      <stop offset="100%" stop-color="var(--primary-text)" stop-opacity="0.08"/>
    </radialGradient>
    <linearGradient id="svg4c41816f-universal-surface-sheen" x1="0%" y1="0%" x2="100%" y2="100%">
      <stop offset="0%" stop-color="var(--art-sheen)" stop-opacity="var(--art-sheen-opacity)"/>
      <stop offset="46%" stop-color="var(--art-sheen)" stop-opacity="0.035"/>
      <stop offset="100%" stop-color="var(--art-panel-tint)" stop-opacity="0.14"/>
    </linearGradient>
    <radialGradient id="svg4c41816f-universal-icon-aura" cx="50%" cy="42%" r="64%">
      <stop offset="0%" stop-color="var(--art-glow)" stop-opacity="var(--art-glow-opacity)"/>
      <stop offset="100%" stop-color="var(--background)" stop-opacity="0"/>
    </radialGradient>
    <filter id="svg4c41816f-text-glow" x="-20%" y="-20%" width="140%" height="140%">
      <feDropShadow dx="0" dy="0" stdDeviation="2" flood-color="#000000" flood-opacity="0.4"/>
    </filter>
    <filter id="svg4c41816f-shadow" x="-30%" y="-30%" width="160%" height="160%">
      <feDropShadow dx="0" dy="2" stdDeviation="3" flood-color="#000000" flood-opacity="0.08"/>
      <feDropShadow dx="0" dy="6" stdDeviation="10" flood-color="#000000" flood-opacity="0.12"/>
    </filter>
    <marker id="svg4c41816f-arrowhead" markerWidth="10" markerHeight="7" refX="9" refY="3.5" orient="auto" markerUnits="strokeWidth">
      <polygon points="0 0, 10 3.5, 0 7" fill="var(--muted-text)" opacity="0.6"/>
    </marker>
  </defs>
  <rect id="CANVAS_BG" width="100%" height="100%" fill="var(--background)"/>
  <rect width="100%" height="100%" fill="url(#svg4c41816f-napkin-hatch)"/>
  <rect id="UNIVERSAL_EDGE_VIGNETTE" width="100%" height="100%" fill="url(#svg4c41816f-universal-edge-vignette)" opacity="0.62"/>
  <text id="TITLE" x="960.0" y="59" text-anchor="middle" font-size="56" font-weight="800" fill="#0f172a" style="font-size: 69px; font-family: 'Segoe UI Variable Display', 'Aptos Display', 'Inter', 'Segoe UI', Helvetica, Arial, sans-serif; font-weight: 800; font-kerning: normal; font-feature-settings: &quot;kern&quot; 1, &quot;liga&quot; 1; letter-spacing:-1.2px;" data-final-font-size="69">
    <tspan x="960.0" dy="70.47px">Contextual Bias in Roswell Deciphering</tspan>
  </text>
  <rect id="TITLE_FRAME" x="134" y="59" width="1652" height="103" fill="none"/>
  <rect x="120" y="205" width="1680" height="500" rx="40" fill="var(--panel)" fill-opacity="0.10" stroke="var(--muted-text)" stroke-width="1.5" opacity="0.68"/>
  <line x1="520.0" y1="468.0" x2="560.0" y2="468.0" stroke="var(--muted-text)" stroke-width="1.5" stroke-dasharray="8 9" opacity="0.42" stroke-linecap="round"/>
  <circle cx="540.0" cy="468.0" r="22" fill="var(--panel)" fill-opacity="0.86" stroke="var(--muted-text)" stroke-width="1.5" opacity="0.82"/>
  <text x="540.0" y="476.0" text-anchor="middle" font-size="22" font-weight="800" fill="var(--muted-text)" opacity="0.72">VS</text>
  <line x1="940.0" y1="468.0" x2="980.0" y2="468.0" stroke="var(--muted-text)" stroke-width="1.5" stroke-dasharray="8 9" opacity="0.42" stroke-linecap="round"/>
  <circle cx="960.0" cy="468.0" r="22" fill="var(--panel)" fill-opacity="0.86" stroke="var(--muted-text)" stroke-width="1.5" opacity="0.82"/>
  <text x="960.0" y="476.0" text-anchor="middle" font-size="22" font-weight="800" fill="var(--muted-text)" opacity="0.72">VS</text>
  <line x1="1360.0" y1="468.0" x2="1400.0" y2="468.0" stroke="var(--muted-text)" stroke-width="1.5" stroke-dasharray="8 9" opacity="0.42" stroke-linecap="round"/>
  <circle cx="1380.0" cy="468.0" r="22" fill="var(--panel)" fill-opacity="0.86" stroke="var(--muted-text)" stroke-width="1.5" opacity="0.82"/>
  <text x="1380.0" y="476.0" text-anchor="middle" font-size="22" font-weight="800" fill="var(--muted-text)" opacity="0.72">VS</text>
  <g transform="translate(322.5, 255.0)" filter="url(#svg4c41816f-soft-shadow)">
    <rect id="ITEM_1_BG" x="-200.0" y="0" width="400.0" height="360" rx="28" fill="var(--panel)" fill-opacity="0.92" stroke="var(--accent-1)" stroke-width="2.5"/>
    <rect x="-200.0" y="0" width="400.0" height="360" rx="18" fill="url(#svg4c41816f-universal-surface-sheen)" opacity="0.86"/>
    <rect x="-184.0" y="12" width="368.0" height="8" rx="4" fill="var(--accent-1)" fill-opacity="0.42"/>
    <circle id="ITEM_1_PAD" cx="0" cy="74" r="46" fill="var(--icon-pad-bg)" stroke="var(--semantic-uncertain)" opacity="1" fill-opacity="0.9" stroke-width="2" stroke-opacity="0.72" data-badge-layer="pad"/>
    <circle id="ITEM_1_PAD_INNER" cx="0" cy="74" r="35.88" fill="var(--semantic-uncertain)" fill-opacity="0.12" stroke="none" data-badge-layer="tint"/>
    <circle cx="0" cy="74" r="36" fill="none" stroke="var(--accent-1)" stroke-width="2.25" stroke-dasharray="4 4" opacity="0.8" display="none" data-suppressed-decoration="redundant-badge-ring"/>
    <g id="ITEM_1_ICON" transform="translate(-34, 40)" data-icon-size="68" stroke-linecap="round" stroke-linejoin="round" data-badge-treatment="clean">
      <g transform="translate(-6.286315789473687,-6.915789473684214) scale(0.1573684210526316)" vector-effect="non-scaling-stroke" fill="#f1f5f9" fill-opacity="1.0" stroke="none">
        <path fill="#f1f5f9" d="m265 34l47.898 35.924l61.563 123.123l-8.057 32.23l-24.943-4.158l3.16-10.533l2.842-9.473L256 182.823l-91.463 18.29l6.002 20.006l-24.943 4.156l-8.057-32.228L199.1 69.926L247 34v56h-39l-16 32l64 38l64-38l-16-32h-39zm188.313 169.258l30.3 10.101l-13.478 29.205l-30.016-5.001zm-394.626 0l13.194 34.304l-30.016 5.002l-13.478-29.205zM256 205.32l53.8 58.692L281.306 359h-50.61L202.2 264.012zm25.254.909l43.283 8.658l-8.715 29.052zm-50.508.002l-34.568 37.709l-8.715-29.053zm105.5 32.267L482.5 262.873L429.799 368.28L329.98 259.385zm-160.492 0l6.266 20.887L82.2 368.279L29.5 262.873zm148.205 40.96l72.201 78.765l-84.556-37.582zm-135.918 0l12.355 41.183l-84.556 37.582zm118.348 58.564l28.646 12.732L312.973 439H265v-62h29.695zm-100.778 0L217.305 377H247v62h-47.973l-22.062-88.246zM387.6 374.115l18.105 8.047l-9.984 21.635l-16.387-8.193zm-263.2 0l8.266 21.489l-16.387 8.193l-9.984-21.635zM311 457v30h-30v-30zm-80 0v30h-30v-30z" vector-effect="non-scaling-stroke" stroke="none"/>
      </g>
    </g>
    <text id="ITEM_1_HEAD" x="0.0" y="138.0" text-anchor="middle" font-size="44" font-weight="800" fill="var(--semantic-uncertain)" data-bg-id="ITEM_1_BG" fill-opacity="1.0" style="font-size: 31px; font-family: 'Segoe UI Variable Display', 'Aptos Display', 'Inter', 'Segoe UI', Helvetica, Arial, sans-serif; font-weight: 700; font-kerning: normal; font-feature-settings: &quot;kern&quot; 1, &quot;liga&quot; 1; letter-spacing:-0.4px;" data-final-font-size="31">
      <tspan x="0.0" dy="42.52px">Roswell Primed Group</tspan>
    </text>
    <rect id="ITEM_1_HEAD_FRAME" x="-166.0" y="138" width="332.0" height="68" fill="none"/>
    <text id="ITEM_1_BODY" x="0.0" y="206.0" text-anchor="middle" font-size="27" fill="var(--primary-text)" data-bg-id="ITEM_1_BG" style="font-size: 23px; font-family: 'Segoe UI Variable Text', 'Aptos', 'Inter', 'Segoe UI', Helvetica, Arial, sans-serif; font-weight: 400; font-kerning: normal; font-feature-settings: &quot;kern&quot; 1, &quot;liga&quot; 1;" data-final-font-size="23">
      <tspan x="0.0" dy="33.73px">Reported words like remains,</tspan>
      <tspan x="0.0" dy="26.45px">crash, and UFO; average of 4.6</tspan>
      <tspan x="0.0" dy="26.45px">deciphered words</tspan>
    </text>
    <rect id="ITEM_1_BODY_FRAME" x="-190.0" y="206" width="380" height="156" fill="none"/>
  </g>
  <g transform="translate(747.5, 255.0)" filter="url(#svg4c41816f-soft-shadow)">
    <rect id="ITEM_2_BG" x="-200.0" y="0" width="400.0" height="360" rx="28" fill="var(--panel)" fill-opacity="0.92" stroke="var(--accent-2)" stroke-width="2.5"/>
    <rect x="-200.0" y="0" width="400.0" height="360" rx="18" fill="url(#svg4c41816f-universal-surface-sheen)" opacity="0.86"/>
    <rect x="-184.0" y="12" width="368.0" height="8" rx="4" fill="var(--accent-2)" fill-opacity="0.42"/>
    <circle id="ITEM_2_PAD" cx="0" cy="74" r="46" fill="var(--icon-pad-bg)" stroke="var(--semantic-uncertain)" opacity="1" fill-opacity="0.9" stroke-width="2" stroke-opacity="0.72" data-badge-layer="pad"/>
    <circle id="ITEM_2_PAD_INNER" cx="0" cy="74" r="35.88" fill="var(--semantic-uncertain)" fill-opacity="0.12" stroke="none" data-badge-layer="tint"/>
    <circle cx="0" cy="74" r="36" fill="none" stroke="var(--accent-2)" stroke-width="2.25" stroke-dasharray="4 4" opacity="0.8" display="none" data-suppressed-decoration="redundant-badge-ring"/>
    <g id="ITEM_2_ICON" transform="translate(-34, 40)" data-icon-size="68" stroke-linecap="round" stroke-linejoin="round" data-badge-treatment="clean">
      <g transform="translate(-8.524444444444448,-8.524444444444448) scale(3.543703703703704)" vector-effect="non-scaling-stroke" stroke-width="2.53" stroke-linecap="round" stroke-linejoin="round" stroke-opacity="1.0">
        <path d="M9 3l6 0" vector-effect="non-scaling-stroke" fill="none" stroke="#f1f5f9"/>
        <path d="M10 9l4 0" vector-effect="non-scaling-stroke" fill="none" stroke="#f1f5f9"/>
        <path d="M10 3v6l-4 11a.7 .7 0 0 0 .5 1h11a.7 .7 0 0 0 .5 -1l-4 -11v-6" vector-effect="non-scaling-stroke" fill="none" stroke="#f1f5f9"/>
      </g>
    </g>
    <text id="ITEM_2_HEAD" x="0.0" y="138.0" text-anchor="middle" font-size="44" font-weight="800" fill="var(--semantic-uncertain)" data-bg-id="ITEM_2_BG" fill-opacity="1.0" style="font-size: 31px; font-family: 'Segoe UI Variable Display', 'Aptos Display', 'Inter', 'Segoe UI', Helvetica, Arial, sans-serif; font-weight: 700; font-kerning: normal; font-feature-settings: &quot;kern&quot; 1, &quot;liga&quot; 1; letter-spacing:-0.4px;" data-final-font-size="31">
      <tspan x="0.0" dy="26.25px">Atomic-Bomb</tspan>
      <tspan x="0.0" dy="32.55px">Primed Group</tspan>
    </text>
    <rect id="ITEM_2_HEAD_FRAME" x="-166.0" y="138" width="332.0" height="68" fill="none"/>
    <text id="ITEM_2_BODY" x="0.0" y="206.0" text-anchor="middle" font-size="27" fill="var(--primary-text)" data-bg-id="ITEM_2_BG" style="font-size: 23px; font-family: 'Segoe UI Variable Text', 'Aptos', 'Inter', 'Segoe UI', Helvetica, Arial, sans-serif; font-weight: 400; font-kerning: normal; font-feature-settings: &quot;kern&quot; 1, &quot;liga&quot; 1;" data-final-font-size="23">
      <tspan x="0.0" dy="33.73px">Reported words like flash, atomic,</tspan>
      <tspan x="0.0" dy="26.45px">and laboratory; average of 4.8</tspan>
      <tspan x="0.0" dy="26.45px">deciphered words</tspan>
    </text>
    <rect id="ITEM_2_BODY_FRAME" x="-190.0" y="206" width="380" height="156" fill="none"/>
  </g>
  <g transform="translate(1172.5, 255.0)" filter="url(#svg4c41816f-soft-shadow)">
    <rect id="ITEM_3_BG" x="-200.0" y="0" width="400.0" height="360" rx="28" fill="var(--panel)" fill-opacity="0.92" stroke="var(--accent-3)" stroke-width="2.5"/>
    <rect x="-200.0" y="0" width="400.0" height="360" rx="18" fill="url(#svg4c41816f-universal-surface-sheen)" opacity="0.86"/>
    <rect x="-184.0" y="12" width="368.0" height="8" rx="4" fill="var(--accent-3)" fill-opacity="0.42"/>
    <circle id="ITEM_3_PAD" cx="0" cy="74" r="46" fill="var(--icon-pad-bg)" stroke="var(--semantic-uncertain)" opacity="1" fill-opacity="0.9" stroke-width="2" stroke-opacity="0.72" data-badge-layer="pad"/>
    <circle id="ITEM_3_PAD_INNER" cx="0" cy="74" r="35.88" fill="var(--semantic-uncertain)" fill-opacity="0.12" stroke="none" data-badge-layer="tint"/>
    <circle cx="0" cy="74" r="36" fill="none" stroke="var(--accent-3)" stroke-width="2.25" stroke-dasharray="4 4" opacity="0.8" display="none" data-suppressed-decoration="redundant-badge-ring"/>
    <g id="ITEM_3_ICON" transform="translate(-34, 40)" data-icon-size="68" stroke-linecap="round" stroke-linejoin="round" data-badge-treatment="clean">
      <g transform="translate(-6.286315789473687,-6.286315789473687) scale(0.1573684210526316)" vector-effect="non-scaling-stroke" fill="#f1f5f9" fill-opacity="1.0" stroke="none">
        <path fill="#f1f5f9" d="M295.568 31.755c-88.873 1.013-164.237 83.15-146.14 154.222c3.112 1.68 6.114 3.713 8.976 6.012c94.364-20.635 186.207-37.25 274.717-69.38c-4.396-11.362-8.926-26.62-15.104-32.857c-38.564-42.043-81.91-58.46-122.448-57.998zm162.787 100.527c-92.984 36.365-188.555 54.132-285.513 75.08c3 4.306 5.436 8.95 6.91 13.865c16.698.56 33.29.95 49.81 1.188c2.315-11.524 9.915-22.267 22.616-27.496l.338-.14l.347-.11a34.9 34.9 0 0 1 11.944-1.66c3.87.14 7.57.94 10.93 2.268c6.725 2.66 12.12 7.126 16.605 12.01c4.4 4.79 8.038 10.1 11.054 15.06c56.644-.994 112.656-4.228 168.79-10.304c-.018-3.805-.042-7.543-.096-11.22c-16.977-1.565-36.94-.35-64.217 7.667c22.82-11.948 39.826-19.518 60.78-19.31q1.544.014 3.122.086c-.45-10.747-1.432-20.984-3.654-30.824c-33.557 19.84-62.436 23.53-105.98 26.362c50.238-10.525 79.007-24.07 102.546-38.356a94 94 0 0 0-6.33-14.166zM132.56 199.17c-.682-.004-1.15.09-1.45.194c-4.756 2.414-9.748 9.214-12.018 17.453c-2.215 8.037-1.57 16.664.984 21.662c4.615 4.572 14.302 6.43 24.166 4.493c9.68-1.9 17.22-7.725 18.862-10.728c.035-5.966-4.99-16.103-12.74-23.406c-4.08-3.848-8.656-6.877-12.417-8.417c-1.88-.77-3.444-1.11-4.63-1.217a9 9 0 0 0-.756-.037zm131.753 11.76c-1.675-.076-3.475.16-5.56.786c-8.19 3.47-11.016 8.43-11.85 16.082c-.843 7.75 1.63 18.15 6.663 27.836s12.528 18.6 20.133 23.953s14.49 6.963 20.238 5.017l5.77 17.05c-12.697 4.3-25.788.1-36.37-7.348c-10.582-7.45-19.485-18.33-25.744-30.372c-3.893-7.49-6.8-15.45-8.108-23.474c-16.447-.24-32.96-.625-49.57-1.178c-2.164 5.224-5.78 9.34-10.246 12.565c5.82 11.84 12.81 22.992 21.11 33.396l2.597 3.252l-.795 4.084c-6.046 31.008-13.87 62.623-36.97 82.58c31.778 52.62 70.812 94.726 150.777 102.636c7.516-26.908 14.15-57.853 60.483-89.71l2.422-1.663l2.937.084c40.79 1.18 61.765-5.75 71.61-18.506c4.322-5.6 7.014-13.152 8.17-22.847l-39.04-.797l.366-17.996l39.19.8c-.368-8.815-1.513-18.807-3.42-30.08l-1.745-10.327l36.203-.586c-1.14-6.856-3.99-16.375-8.29-25.238c-6.218-12.83-15.555-24.903-19.124-27.382l-2.123-1.477c-50.237 4.848-100.406 7.483-151.02 8.347c-7.65 3.924-5.706 2.888-7.813 4.068c-4.162-7.43-9.574-17.904-16.11-25.02c-3.27-3.56-6.693-6.154-9.968-7.45c-1.584-.625-3.133-1.01-4.807-1.086zm-157.125 40.21c-6.954 14.03-14.456 30.194-22.5 46.296c-9.06 18.146-18.786 36.2-29.49 51.268c-8.14 11.457-16.796 21.348-26.764 27.975c9.864 13.877 17.987 25.48 24.654 35.674c4.344-12.038 9.388-24.587 14.734-37.382c11.19-26.778 23.637-54.487 33.354-79.553c5.43-14.012 9.954-27.268 12.98-38.853a32.6 32.6 0 0 1-6.97-5.428zm38.093 9.92c-4.485.71-9.156.97-13.766.61c-3.28 12.524-8.04 26.025-13.555 40.255c-9.972 25.724-22.472 53.52-33.53 79.986c-11.06 26.467-20.645 51.69-24.836 71.397c-2.096 9.855-2.788 18.303-2.033 24.456c.114.927.3 1.68.463 2.492a52 52 0 0 1 10.29-5.897c10.15-4.394 22.763-7.508 35.332-9.756c12.568-2.247 24.964-3.555 34.462-3.857c.97-.03 1.77-.006 2.674-.018c-10.392-58.63-2.174-142.745 4.5-199.666z" vector-effect="non-scaling-stroke" stroke="none"/>
      </g>
    </g>
    <text id="ITEM_3_HEAD" x="0.0" y="138.0" text-anchor="middle" font-size="44" font-weight="800" fill="var(--semantic-uncertain)" data-bg-id="ITEM_3_BG" fill-opacity="1.0" style="font-size: 31px; font-family: 'Segoe UI Variable Display', 'Aptos Display', 'Inter', 'Segoe UI', Helvetica, Arial, sans-serif; font-weight: 700; font-kerning: normal; font-feature-settings: &quot;kern&quot; 1, &quot;liga&quot; 1; letter-spacing:-0.4px;" data-final-font-size="31">
      <tspan x="0.0" dy="42.52px">Blind Control Group</tspan>
    </text>
    <rect id="ITEM_3_HEAD_FRAME" x="-166.0" y="138" width="332.0" height="68" fill="none"/>
    <text id="ITEM_3_BODY" x="0.0" y="206.0" text-anchor="middle" font-size="27" fill="var(--primary-text)" data-bg-id="ITEM_3_BG" style="font-size: 23px; font-family: 'Segoe UI Variable Text', 'Aptos', 'Inter', 'Segoe UI', Helvetica, Arial, sans-serif; font-weight: 400; font-kerning: normal; font-feature-settings: &quot;kern&quot; 1, &quot;liga&quot; 1;" data-final-font-size="23">
      <tspan x="0.0" dy="33.73px">Reported significantly fewer words</tspan>
      <tspan x="0.0" dy="26.45px">(avg 1.6) with less scenario-</tspan>
      <tspan x="0.0" dy="26.45px">specific content</tspan>
    </text>
    <rect id="ITEM_3_BODY_FRAME" x="-190.0" y="206" width="380" height="156" fill="none"/>
  </g>
  <g transform="translate(1597.5, 255.0)" filter="url(#svg4c41816f-soft-shadow)">
    <rect id="ITEM_4_BG" x="-200.0" y="0" width="400.0" height="360" rx="28" fill="var(--panel)" fill-opacity="0.92" stroke="var(--accent-4)" stroke-width="2.5"/>
    <rect x="-200.0" y="0" width="400.0" height="360" rx="18" fill="url(#svg4c41816f-universal-surface-sheen)" opacity="0.86"/>
    <rect x="-184.0" y="12" width="368.0" height="8" rx="4" fill="var(--accent-4)" fill-opacity="0.42"/>
    <circle id="ITEM_4_PAD" cx="0" cy="74" r="46" fill="var(--icon-pad-bg)" stroke="var(--semantic-uncertain)" opacity="1" fill-opacity="0.9" stroke-width="2" stroke-opacity="0.72" data-badge-layer="pad"/>
    <circle id="ITEM_4_PAD_INNER" cx="0" cy="74" r="35.88" fill="var(--semantic-uncertain)" fill-opacity="0.12" stroke="none" data-badge-layer="tint"/>
    <circle cx="0" cy="74" r="36" fill="none" stroke="var(--accent-4)" stroke-width="2.25" stroke-dasharray="4 4" opacity="0.8" display="none" data-suppressed-decoration="redundant-badge-ring"/>
    <g id="ITEM_4_ICON" transform="translate(-34, 40)" data-icon-size="68" stroke-linecap="round" stroke-linejoin="round" data-badge-treatment="clean">
      <g transform="translate(-8.524444444444448,-8.524444444444448) scale(3.543703703703704)" vector-effect="non-scaling-stroke" stroke-width="2.53" stroke-linecap="round" stroke-linejoin="round" stroke-opacity="1.0">
        <path d="M4.5 3h15" vector-effect="non-scaling-stroke" fill="none" stroke="#f1f5f9"/>
        <path d="M6 3v16a2 2 0 0 0 2 2h8a2 2 0 0 0 2-2V3" vector-effect="non-scaling-stroke" fill="none" stroke="#f1f5f9"/>
        <path d="M6 14h12" vector-effect="non-scaling-stroke" fill="none" stroke="#f1f5f9"/>
      </g>
    </g>
    <text id="ITEM_4_HEAD" x="0.0" y="138.0" text-anchor="middle" font-size="44" font-weight="800" fill="var(--semantic-uncertain)" data-bg-id="ITEM_4_BG" fill-opacity="1.0" style="font-size: 31px; font-family: 'Segoe UI Variable Display', 'Aptos Display', 'Inter', 'Segoe UI', Helvetica, Arial, sans-serif; font-weight: 700; font-kerning: normal; font-feature-settings: &quot;kern&quot; 1, &quot;liga&quot; 1; letter-spacing:-0.4px;" data-final-font-size="31">
      <tspan x="0.0" dy="42.52px">Cross-Group Agreement</tspan>
    </text>
    <rect id="ITEM_4_HEAD_FRAME" x="-166.0" y="138" width="332.0" height="68" fill="none"/>
    <text id="ITEM_4_BODY" x="0.0" y="206.0" text-anchor="middle" font-size="27" fill="var(--primary-text)" data-bg-id="ITEM_4_BG" style="font-size: 23px; font-family: 'Segoe UI Variable Text', 'Aptos', 'Inter', 'Segoe UI', Helvetica, Arial, sans-serif; font-weight: 400; font-kerning: normal; font-feature-settings: &quot;kern&quot; 1, &quot;liga&quot; 1;" data-final-font-size="23">
      <tspan x="0.0" dy="33.73px">Participants agreed on 'Fort Worth</tspan>
      <tspan x="0.0" dy="26.45px">TX', 'story', and 'weather</tspan>
      <tspan x="0.0" dy="26.45px">balloons' regardless of priming</tspan>
    </text>
    <rect id="ITEM_4_BODY_FRAME" x="-190.0" y="206" width="380" height="156" fill="none"/>
  </g>
  <text id="SOURCE_NOTE" x="134.0" y="1058.0" fill="var(--muted-text)" opacity="1" style="font-family: var(--font-family); font-size: 20px;">Source: Publications Forensic Handwriting Examination and Human Factors</text>
</svg>
